<?xml version="1.0" standalone="no"?>
<!DOCTYPE svg PUBLIC "-//W3C//DTD SVG 1.1//EN" "http://www.w3.org/Graphics/SVG/1.1/DTD/svg11.dtd" >
<svg xmlns="http://www.w3.org/2000/svg">
<metadata></metadata>
<defs>
<font id="assemblylightsskregular" horiz-adv-x="602" >
<font-face units-per-em="2048" ascent="1638" descent="-410" />
<missing-glyph horiz-adv-x="303" />
<glyph horiz-adv-x="0" />
<glyph unicode="&#xd;" horiz-adv-x="303" />
<glyph unicode=" "  horiz-adv-x="303" />
<glyph unicode="&#x09;" horiz-adv-x="303" />
<glyph unicode="&#xa0;" horiz-adv-x="303" />
<glyph unicode="!" horiz-adv-x="329" d="M119 31v92h90v-92h-90zM119 324v1122h90v-1122h-90z" />
<glyph unicode="&#x22;" horiz-adv-x="1902" d="M41 264q0 78 53 135.5t129 57.5l19 -19q-4 -12 -43 -28q-45 -18 -66 -41q-35 -35 -35 -103q0 -80 64 -125q57 -41 139 -41q121 0 221 62q115 72 115 186q0 88 -118 259t-118 272q0 190 201 366q195 174 387 174q133 0 133 -112q0 -16 -35 -138q283 256 482 256 q133 1 133 -112q0 -111 -167 -266.5t-278 -157.5l-26 16v4q0 14 49 37q375 168 375 344q0 43 -30 69.5t-73 26.5q-164 0 -340 -155q-180 -162 -180 -324q0 -115 122 -298t122 -259q0 -127 -133 -211q-117 -74 -250 -73q-176 0 -256 127q-147 -133 -324 -134q-111 0 -184 47 q-88 53 -88 158zM453 901q0 -104 88 -252q70 -119 141 -237q80 51 121 51l16 -19q-49 -31 -95 -61.5t-46 -112.5q0 -80 63 -125q55 -39 140 -39q121 0 221 62q115 71 115 186q0 86 -118 258t-118 273q0 59 45 219q-82 -68 -166 -135q-117 -86 -182 -86l-27 16v4q0 16 49 37 q375 158 375 344q0 43 -29.5 69.5t-72.5 26.5q-164 0 -340 -155q-180 -162 -180 -324zM1341 86q0 68 128 327t176 265l6 -6q-31 -51 -90 -150q-113 -186 -172 -389q-4 -18 -11.5 -40.5t-21.5 -24.5q-14 6 -15 18zM1747 954q0 27 35 73t61 46q19 0 19 -18q0 -29 -36 -75 t-63 -46q-16 0 -16 20z" />
<glyph unicode="$" horiz-adv-x="606" d="M106 422h91v-152h213v422q-14 0 -54.5 -2t-62.5 -2q-186 0 -187 127v297q0 141 152 193v153h90v-153q96 -33 127 -95q25 -47 25 -155h-90v151h-213v-422q14 0 55 2t63 2q184 0 185 -126v-297q0 -141 -152 -193v-154h-90v154q-96 33 -127 94q-25 47 -25 156z" />
<glyph unicode="%" horiz-adv-x="606" d="M47 1196q0 33 24.5 57.5t57.5 24.5t57.5 -24.5t24.5 -57.5q0 -35 -23.5 -59.5t-58.5 -24.5t-58.5 24.5t-23.5 59.5zM137 31l246 1415h88l-246 -1415h-88zM395 281q0 35 23.5 59.5t58.5 24.5t58.5 -24.5t23.5 -59.5q0 -33 -24.5 -57.5t-57.5 -24.5t-57.5 24.5t-24.5 57.5z " />
<glyph unicode="&#x26;" horiz-adv-x="681" d="M70 602q0 59 26 88q20 20 82 45q-57 31 -74 45q-33 31 -32 76l-2 404q0 82 58 140t140 58q131 0 172 -115q23 -61 25 -221h-92l2 232h-213l-2 -570h215l-2 148h92l-2 -148h147l2 -92h-149l2 -661h-272q-49 0 -85 35.5t-36 87.5zM158 123h213l2 569h-213z" />
<glyph unicode="(" horiz-adv-x="430" d="M94 -137v1548q0 49 36 86t85 37h121v-92h-152v-1610h152v-90h-121q-49 0 -85 36t-36 85z" />
<glyph unicode=")" horiz-adv-x="446" d="M102 -168h152v1610h-152v92h121q49 0 85 -37t36 -86v-1548q0 -49 -36 -85t-85 -36h-121v90z" />
<glyph unicode="*" horiz-adv-x="532" d="M72 1272l28 69l138 -69l-5 174h66l-4 -174l139 69l27 -69l-148 -45l99 -117l-58 -43l-90 137l-76 -137l-65 43l104 117z" />
<glyph unicode="," horiz-adv-x="288" d="M98 -82v205h90v-111z" />
<glyph unicode="-" horiz-adv-x="573" d="M106 692v92h361v-92h-361z" />
<glyph unicode="." horiz-adv-x="288" d="M98 31v92h90v-92h-90z" />
<glyph unicode="/" horiz-adv-x="491" d="M78 18l248 1440h88l-248 -1440h-88z" />
<glyph unicode="0" d="M104 217v1043q0 80 58.5 139t138.5 59q82 0 139.5 -59.5t57.5 -138.5v-1043q0 -80 -57.5 -139.5t-139.5 -59.5q-80 0 -138.5 59.5t-58.5 139.5zM195 123h213v1231h-213v-1231z" />
<glyph unicode="1" d="M193 1446h215l2 -1415h-93l2 1323h-124z" />
<glyph unicode="2" d="M104 31v631q0 127 185 126q25 0 64.5 -2t54.5 -2v570h-213v-232h-91v138q0 80 58.5 139t138.5 59q82 0 139.5 -59.5t57.5 -138.5v-445q0 -127 -187 -127q-23 0 -62.5 2t-53.5 2v-569h213v231h90v-323h-394z" />
<glyph unicode="3" d="M104 354h91v-231h213v569h-170l174 662h-217v-232h-91v324h394v-119l-144 -543q59 0 101.5 -32.5t42.5 -89.5v-445q0 -80 -57.5 -139.5t-139.5 -59.5q-133 0 -174 113q-23 63 -23 223z" />
<glyph unicode="4" d="M47 567v115l293 764h100v-789h115v-90h-115v-536h-90v536h-303zM113 657h237q4 195 29 586h-62q-41 -156 -204 -586z" />
<glyph unicode="5" d="M104 354h91v-231h213v569h-304v754h394v-324h-90v232h-213v-570q14 0 55 2t63 2q184 0 185 -126v-445q0 -80 -57.5 -139.5t-139.5 -59.5q-133 0 -174 113q-23 63 -23 223z" />
<glyph unicode="6" d="M104 217v1043q0 80 58.5 139t138.5 59q133 0 174 -112q23 -63 23 -224h-90v232h-213v-570q14 0 55 2t63 2q184 0 185 -126v-445q0 -80 -57.5 -139.5t-139.5 -59.5q-80 0 -138.5 59.5t-58.5 139.5zM195 123h213v569h-213v-569z" />
<glyph unicode="7" d="M104 1446h392l2 -60l-295 -1355h-94l292 1323h-206l2 -232h-91z" />
<glyph unicode="8" d="M104 217v369q0 61 35 98q25 25 90 57q-66 29 -90 54q-35 35 -35 96v369q0 80 58.5 139t138.5 59q82 0 139.5 -59.5t57.5 -138.5v-369q0 -61 -35 -96q-23 -25 -90 -54q68 -33 90 -57q35 -37 35 -98v-369q0 -80 -57.5 -139.5t-139.5 -59.5q-80 0 -138.5 59.5t-58.5 139.5z M195 123h213v557h-213v-557zM195 797h213v557h-213v-557z" />
<glyph unicode="9" d="M104 354h91v-231h213v569q-14 0 -54.5 -2t-62.5 -2q-186 0 -187 127v445q0 80 58.5 139t138.5 59q82 0 139.5 -59.5t57.5 -138.5v-1043q0 -80 -57.5 -139.5t-139.5 -59.5q-133 0 -174 113q-23 63 -23 223zM195 784h213v570h-213v-570z" />
<glyph unicode=":" horiz-adv-x="290" d="M100 31v92h90v-92h-90zM100 877v92h90v-92h-90z" />
<glyph unicode=";" horiz-adv-x="288" d="M100 -82v205h90v-111zM100 877v92h90v-92h-90z" />
<glyph unicode="?" horiz-adv-x="577" d="M92 1116v144q0 80 57.5 139t139.5 59q80 0 138 -59.5t58 -138.5v-445q0 -88 -77 -113q-35 -10 -150 -10v-368h-90v338q0 90 78 112q33 10 149 10v570h-213v-238h-90zM168 31v92h90v-92h-90z" />
<glyph unicode="A" horiz-adv-x="604" d="M104 31v1229q0 80 58.5 139t138.5 59q82 0 139.5 -59.5t57.5 -138.5v-1229h-90v661h-213v-661h-91zM195 784h213v570h-213v-570z" />
<glyph unicode="B" d="M104 31v1415h273q51 0 86 -36t35 -87v-467q0 -45 -35 -76q-14 -12 -74 -45q61 -25 82 -45q27 -29 27 -88v-448q0 -51 -35 -87t-86 -36h-273zM195 123h213v569h-213v-569zM195 784h213v570h-213v-570z" />
<glyph unicode="C" horiz-adv-x="561" d="M84 217v1043q0 80 58.5 139t138.5 59q133 0 174 -112q22 -60 22 -211v-13h-90v232h-213v-1231h213v231h90v-137q0 -80 -58.5 -139.5t-137.5 -59.5q-80 0 -138.5 59.5t-58.5 139.5z" />
<glyph unicode="D" horiz-adv-x="604" d="M104 31v1415h273q51 0 86 -36t35 -87v-1169q0 -51 -35 -87t-86 -36h-273zM195 123h213v1231h-213v-1231z" />
<glyph unicode="E" horiz-adv-x="555" d="M80 154v1169q0 51 36 87t85 36h272v-92h-303v-570h227v-92h-227v-569h303v-92h-272q-49 0 -85 35.5t-36 87.5z" />
<glyph unicode="F" horiz-adv-x="538" d="M72 1323q0 51 34.5 87t86.5 36h272l2 -92h-303l-2 -570h227l2 -92h-229l2 -661h-90z" />
<glyph unicode="G" horiz-adv-x="585" d="M96 217v1043q0 80 58.5 139t138.5 59q133 0 174 -112q22 -60 22 -211v-13h-90v232h-213v-1231h213v569h-65v92h155v-567q0 -80 -58 -139.5t-138 -59.5t-138.5 59.5t-58.5 139.5z" />
<glyph unicode="H" horiz-adv-x="600" d="M102 31v1415h91v-662h213v662h90v-1415h-90v661h-213v-661h-91z" />
<glyph unicode="I" horiz-adv-x="296" d="M102 31v1415h91v-1415h-91z" />
<glyph unicode="J" horiz-adv-x="589" d="M98 354h90v-231h213v1231h-151v92h242v-1229q0 -80 -58.5 -139.5t-138.5 -59.5q-133 0 -174 113q-23 63 -23 223z" />
<glyph unicode="K" d="M96 31v1415h90v-662h213q0 33 -7 173.5t-7 224.5q0 199 35 264h86q-31 -72 -31 -229q0 -72 7 -198t7 -163q0 -45 -34 -76q-14 -12 -74 -45q127 -51 127 -215q0 -51 -14.5 -164.5t-14.5 -171.5q0 -90 27 -153h-86q-35 76 -35 268q0 80 7 218t7 175h-213v-661h-90z" />
<glyph unicode="L" horiz-adv-x="565" d="M86 31v1415h90v-1323h213v305h90v-397h-393z" />
<glyph unicode="M" horiz-adv-x="751" d="M102 31v1415h88q109 -322 160 -490h49q51 168 162 490h86v-1415h-90v643q0 213 18 475h-59q-39 -131 -141 -436q-49 145 -139 436h-62q18 -262 19 -475v-643h-91z" />
<glyph unicode="N" horiz-adv-x="600" d="M102 31v1415h88q66 -313 175 -944h63q-22 326 -22 530v17v397h90v-1415h-86q-66 313 -177 946h-63q23 -346 23 -549v-397h-91z" />
<glyph unicode="O" d="M104 217v1043q0 80 58.5 139t138.5 59q82 0 139.5 -59.5t57.5 -138.5v-1043q0 -80 -57.5 -139.5t-139.5 -59.5q-80 0 -138.5 59.5t-58.5 139.5zM195 123h213v1231h-213v-1231z" />
<glyph unicode="P" horiz-adv-x="567" d="M86 31v1415h272q51 0 86 -36t35 -87v-508q0 -127 -184 -127q-23 0 -62.5 2t-56.5 2v-661h-90zM176 784h213v570h-213v-570z" />
<glyph unicode="Q" d="M104 217v1043q0 80 58.5 139t138.5 59q82 0 139.5 -59.5t57.5 -138.5v-1043q0 -80 -57.5 -139.5t-139.5 -59.5q-80 0 -138.5 59.5t-58.5 139.5zM195 123h213v1231h-213v-1231zM256 -76h90v-92h-90v92z" />
<glyph unicode="R" d="M96 31v1415h273q49 0 84.5 -36t35.5 -87v-467q0 -45 -34 -76q-14 -12 -76 -45q113 -45 127 -176q1 -7 1 -17q0 -62 -22 -249q-6 -55 -6 -101q0 -100 27 -161h-86q-35 76 -35 266q0 80 7 218t7 177h-213v-661h-90zM186 784h213v570h-213v-570z" />
<glyph unicode="S" horiz-adv-x="583" d="M96 354h90v-231h213v569q-14 0 -54 -2t-62 -2q-186 0 -187 127v445q0 80 57.5 139t139.5 59q133 0 174 -112q22 -60 22 -211v-13h-90v232h-213v-570q14 0 54.5 2t64.5 2q184 0 184 -126v-445q0 -80 -58 -139.5t-138 -59.5q-133 0 -174 113q-23 63 -23 223z" />
<glyph unicode="T" horiz-adv-x="538" d="M72 1354v92h393v-92h-152v-1323h-90v1323h-151z" />
<glyph unicode="U" horiz-adv-x="598" d="M102 217v1229h91v-1323h213v1323h90v-1229q0 -80 -57.5 -139.5t-139.5 -59.5q-80 0 -138.5 59.5t-58.5 139.5z" />
<glyph unicode="V" horiz-adv-x="585" d="M80 1446h90q27 -274 53 -549q31 -319 37 -549h64q8 229 36 549q29 274 56 549h90l-168 -1415h-90z" />
<glyph unicode="W" horiz-adv-x="765" d="M98 1446h92q4 -449 5 -1081h61q2 14 90 575h74q35 -190 88 -575h63l-4 315v-3l8 769h91l-48 -1415h-86q-51 264 -71 377q-35 211 -47 380h-62q-18 -246 -119 -757h-88z" />
<glyph unicode="X" horiz-adv-x="579" d="M80 31l164 708l-164 707h90q35 -158 90 -475h59q10 92 91 475h90l-164 -707q0 1 164 -708h-90q-35 158 -91 475h-59q-10 -92 -90 -475h-90z" />
<glyph unicode="Y" horiz-adv-x="585" d="M96 877v569h90v-664h213v664h90v-569q0 -137 -151 -197v-649h-90v649q-152 59 -152 197z" />
<glyph unicode="Z" horiz-adv-x="585" d="M96 31v119l310 1204h-220v-305h-90v397h393v-119l-307 -1204h217v305h90v-397h-393z" />
<glyph unicode="[" horiz-adv-x="454" d="M96 -258v1792h262v-92h-172v-1610h172v-90h-262z" />
<glyph unicode="]" horiz-adv-x="466" d="M102 -168h172v1610h-172v92h263v-1792h-263v90z" />
<glyph unicode="_" horiz-adv-x="1024" d="M31 -186h962v-41h-962v41z" />
<glyph unicode="`" horiz-adv-x="303" d="M-27 1444v78l357 -138v-77z" />
<glyph unicode="a" horiz-adv-x="595" d="M100 154v563q0 127 185 127q25 0 64.5 -2t53.5 -2v221h-270v92h240q51 0 86 -37t35 -86v-999h-273q-49 0 -85 35.5t-36 87.5zM190 123h213v625h-213v-625z" />
<glyph unicode="b" horiz-adv-x="583" d="M96 31v1415h90v-293q14 0 54.5 2t62.5 2q186 0 186 -127v-876q0 -51 -35.5 -87t-84.5 -36h-273zM186 123h213v938h-213v-938z" />
<glyph unicode="c" horiz-adv-x="583" d="M94 217v750q0 80 58.5 139t138.5 59q197 0 196 -258h-90v154h-213v-938h213v151h90v-57q0 -80 -57 -139.5t-139 -59.5q-80 0 -138.5 59.5t-58.5 139.5z" />
<glyph unicode="d" horiz-adv-x="583" d="M96 154v876q0 127 185 127q23 0 62.5 -2t55.5 -2v293h90v-1415h-272q-51 0 -86 35.5t-35 87.5zM186 123h213v938h-213v-938z" />
<glyph unicode="e" horiz-adv-x="583" d="M94 217v750q0 80 58.5 139t138.5 59q82 0 139 -59t57 -139v-422h-303v-422h213v151h90v-57q0 -80 -57 -139.5t-139 -59.5q-80 0 -138.5 59.5t-58.5 139.5zM184 637h213v424h-213v-424z" />
<glyph unicode="f" horiz-adv-x="444" d="M39 907v92h74q0 12 -7.5 87t-7.5 124q0 236 135 236h175v-92h-205v-355h149v-92h-149v-1057q0 -88 -90 -114v1171h-74z" />
<glyph unicode="g" horiz-adv-x="591" d="M100 154v813q0 80 58.5 139t138.5 59t138.5 -59t58.5 -139v-1117q0 -49 -36 -84.5t-85 -35.5h-240v90h270v211q-16 0 -56 -2t-62 -2q-184 0 -185 127zM190 123h213v938h-213v-938z" />
<glyph unicode="h" horiz-adv-x="583" d="M96 31v1415h90v-293q14 0 54.5 2t62.5 2q186 0 186 -127v-999h-90v1030h-213v-1030h-90z" />
<glyph unicode="i" horiz-adv-x="292" d="M100 141v1012h90v-1128q-90 27 -90 116zM100 1354v92h90v-92h-90z" />
<glyph unicode="j" horiz-adv-x="299" d="M104 -264v1417h91v-1303q0 -88 -91 -114zM104 1354v92h91v-92h-91z" />
<glyph unicode="k" horiz-adv-x="606" d="M98 31v1415h90v-737h125q98 0 99 155q0 29 -3 89.5t-3 88.5q0 72 14 111h86q-16 -51 -17 -113q0 -35 6.5 -98t6.5 -90q0 -133 -117 -193q125 -53 125 -204q0 -41 -11.5 -137.5t-11.5 -147.5q0 -78 19 -139h-86q-18 43 -19 127q0 43 7.5 137t7.5 137q0 184 -103 184h-125 v-585h-90z" />
<glyph unicode="l" horiz-adv-x="299" d="M104 31v1421q90 -27 91 -117v-1304h-91z" />
<glyph unicode="m" horiz-adv-x="899" d="M100 31v1122h576q51 0 86 -37t35 -86v-999h-90v1030h-213v-1030h-91v1030h-213v-1030h-90z" />
<glyph unicode="n" horiz-adv-x="595" d="M100 31v1122h273q51 0 86 -37t35 -86v-999h-91v1030h-213v-1030h-90z" />
<glyph unicode="o" horiz-adv-x="583" d="M94 217v750q0 80 58.5 139t138.5 59q82 0 139 -59t57 -139v-750q0 -80 -57 -139.5t-139 -59.5q-80 0 -138.5 59.5t-58.5 139.5zM184 123h213v938h-213v-938z" />
<glyph unicode="p" horiz-adv-x="583" d="M96 -258v1411h273q49 0 84.5 -37t35.5 -86v-876q0 -127 -184 -127q-25 0 -64.5 2t-54.5 2v-289h-90zM186 123h213v938h-213v-938z" />
<glyph unicode="q" horiz-adv-x="583" d="M96 154v876q0 49 35 86t86 37h272v-1411h-90v289q-16 0 -56 -2t-64 -2q-182 0 -183 127zM186 123h213v938h-213v-938z" />
<glyph unicode="r" horiz-adv-x="415" d="M88 31v999q0 49 35 86t86 37h121v-92h-152v-1030h-90z" />
<glyph unicode="s" horiz-adv-x="573" d="M90 274h90v-151h213v422q-14 0 -54 -2t-63 -2q-186 0 -186 127v299q0 80 58.5 139t138.5 59q197 0 196 -258h-90v154h-213v-424q14 0 55 2t64 2q184 0 184 -127v-297q0 -80 -57 -139.5t-139 -59.5q-197 0 -197 256z" />
<glyph unicode="t" horiz-adv-x="405" d="M80 1446h92l-2 -293h154v-92h-154l2 -1036q-90 25 -90 116z" />
<glyph unicode="u" horiz-adv-x="593" d="M100 31v1122h90v-1030h213v1030h91v-999q0 -51 -35 -87t-86 -36h-273z" />
<glyph unicode="v" horiz-adv-x="579" d="M78 1153h88q27 -211 53 -422q31 -248 39 -422h64q8 174 38 422l54 422h88l-168 -1122h-88z" />
<glyph unicode="w" horiz-adv-x="899" d="M100 31v1122h90v-1030h213v1030h91v-1030h213v1030h90v-999q0 -51 -35 -87t-86 -36h-576z" />
<glyph unicode="x" d="M86 31l170 561l-170 561h92l98 -377h52l98 377h90l-168 -561l168 -561h-90l-98 377h-52l-98 -377h-92z" />
<glyph unicode="y" horiz-adv-x="595" d="M100 154v999h90v-1030h213v1030h91v-1411h-91v289q-14 0 -54 -2t-64 -2q-184 0 -185 127z" />
<glyph unicode="z" horiz-adv-x="575" d="M92 31v57l293 973h-203v-154h-90v246h393v-59l-292 -971h202v151h90v-243h-393z" />
<glyph unicode="{" horiz-adv-x="681" d="M117 590v94q174 14 174 264q0 47 -7.5 150.5t-7.5 152.5q0 135 41 201q51 82 181 82h67v-92q-102 0 -135 -15q-57 -25 -57 -112q0 -16 8 -125t8 -182q0 -319 -147 -342v-58q147 -23 147 -342q0 -74 -8 -182.5t-8 -124.5q0 -88 57 -113q33 -14 135 -14v-90h-67 q-129 0 -181 82q-41 66 -41 199q0 49 7.5 153.5t7.5 151.5q0 248 -174 262z" />
<glyph unicode="}" horiz-adv-x="681" d="M117 -168q102 0 135 14q57 25 57 113q0 16 -8 125t-8 182q0 319 147 342v58q-147 23 -147 342q0 74 8 182t8 125q0 88 -57 112q-33 14 -135 15v92h67q129 0 181 -82q41 -66 41 -201q0 -49 -7.5 -152.5t-7.5 -150.5q0 -250 174 -264v-94q-174 -14 -174 -262 q0 -47 7.5 -151.5t7.5 -153.5q0 -133 -41 -199q-51 -82 -181 -82h-67v90z" />
<glyph unicode="&#xa1;" horiz-adv-x="376" d="M143 31v1122h90v-1122h-90zM143 1354v92h90v-92h-90z" />
<glyph unicode="&#xa2;" horiz-adv-x="606" d="M106 365v747q0 141 152 193v153h90v-153q96 -33 127 -95q25 -47 25 -155h-90v151h-213v-936h213v152h90v-57q0 -141 -152 -193v-154h-90v154q-152 51 -152 193z" />
<glyph unicode="&#xa3;" horiz-adv-x="606" d="M68 784h77l-2 476q0 82 58.5 140t140.5 58q131 0 172 -115q23 -63 25 -221h-93l3 232h-213l-3 -570h152l2 -92h-151l-3 -569h304l2 -92h-396l2 661h-75z" />
<glyph unicode="&#xa5;" horiz-adv-x="606" d="M106 877v569h91v-664h213v664h90v-569q0 -137 -152 -197v-107h117v-79h-117v-144h117v-80h-117v-239h-90v239h-117v80h117v144h-117v79h117v107q-152 59 -152 197z" />
<glyph unicode="&#xa8;" horiz-adv-x="303" d="M-6 1354v92h90v-92h-90zM219 1354v92h90v-92h-90z" />
<glyph unicode="&#xa9;" horiz-adv-x="1638" d="M98 741q0 301 211 509t512 208q299 0 509 -209t210 -508q0 -301 -209 -512t-510 -211q-303 0 -513 210t-210 513zM188 741q0 -276 179.5 -465.5t453.5 -189.5q272 0 450.5 190.5t178.5 464.5q0 272 -179 462t-450 190q-272 0 -452.5 -189.5t-180.5 -462.5zM436 743 q0 186 109.5 306t294.5 120q123 0 214 -65.5t120 -183.5h-72q-27 86 -98.5 134t-161.5 48q-147 0 -236 -107q-80 -98 -80 -250q0 -147 84 -253q92 -113 236 -113q92 0 163.5 51t92.5 139h72q-33 -117 -121 -187.5t-207 -70.5q-184 0 -297 123t-113 309z" />
<glyph unicode="&#xaa;" horiz-adv-x="393" d="M72 891v285q0 68 73 81q10 2 123 3v133h-176v53h146q35 0 59.5 -24.5t24.5 -59.5v-555h-166q-35 0 -59.5 24.5t-24.5 59.5zM125 860h143v346h-143v-346z" />
<glyph unicode="&#xab;" horiz-adv-x="909" d="M199 739l254 334v-112l-170 -222l170 -221v-112zM457 739l254 334v-112l-170 -222l170 -221v-112z" />
<glyph unicode="&#xad;" horiz-adv-x="573" d="M106 692v92h361v-92h-361z" />
<glyph unicode="&#xae;" horiz-adv-x="1638" d="M98 741q0 301 211 509t512 208q299 0 509 -209t210 -508q0 -301 -209 -512t-510 -211q-303 0 -513 210t-210 513zM188 741q0 -276 179.5 -465.5t453.5 -189.5q272 0 450.5 190.5t178.5 464.5q0 272 -179 462t-450 190q-272 0 -452.5 -189.5t-180.5 -462.5zM565 338v805 h295q266 0 266 -217q0 -182 -237 -213l239 -375h-73l-228 377h-196v-377h-66zM631 758h188q115 0 168 28q74 41 74 150q0 164 -219 164h-211v-342z" />
<glyph unicode="&#xaf;" horiz-adv-x="303" d="M-43 1364v68h389v-68h-389z" />
<glyph unicode="&#xb1;" horiz-adv-x="1124" d="M119 147h885l2 -77h-885zM119 647h405l-2 250h80l-2 -250h404l2 -78h-406l2 -250h-80l2 250h-403z" />
<glyph unicode="&#xb2;" horiz-adv-x="393" d="M59 623v354q0 100 117 100q16 0 47 -2t45 -2v307h-143v-116h-66v55q0 57 40 98t98 41q57 0 97 -41t40 -98v-215q0 -100 -117 -100q-16 0 -47 2t-45 2v-320h143v129h66v-194h-275z" />
<glyph unicode="&#xb3;" horiz-adv-x="393" d="M59 817h66v-129h143v320h-106l117 372h-154v-116h-66v182h275v-92l-88 -281q88 0 88 -96v-227q0 -61 -38 -100.5t-99 -39.5q-88 0 -119 66q-18 41 -19 141z" />
<glyph unicode="&#xb4;" horiz-adv-x="303" d="M-27 1307v77l357 138v-78z" />
<glyph unicode="&#xb7;" horiz-adv-x="303" d="M31 586q0 49 35.5 86t85.5 37q49 0 84.5 -37t35.5 -86q0 -51 -34.5 -87t-85.5 -36t-86 36t-35 87z" />
<glyph unicode="&#xb8;" horiz-adv-x="303" d="M106 -45q91 -25 91 -119q0 -92 -91 -119v60q37 18 37 59t-37 60v59z" />
<glyph unicode="&#xb9;" horiz-adv-x="272" d="M61 1446h148l2 -823h-68l2 757h-82z" />
<glyph unicode="&#xba;" horiz-adv-x="393" d="M72 920v411q0 53 36.5 90t88.5 37q51 0 88 -37t37 -90v-411q0 -51 -37 -88t-88 -37t-88 36.5t-37 88.5zM125 860h143v533h-143v-533z" />
<glyph unicode="&#xbb;" horiz-adv-x="909" d="M199 406v112l170 221l-170 222v112l254 -334zM457 406v112l170 221l-170 222v112l254 -334z" />
<glyph unicode="&#xbf;" horiz-adv-x="606" d="M106 217v445q0 90 78 112q35 10 150 10v369h90v-338q0 -88 -78 -113q-35 -10 -149 -10v-569h213v237h90v-143q0 -80 -58.5 -139.5t-138.5 -59.5t-138.5 59.5t-58.5 139.5zM334 1354v92h90v-92h-90z" />
<glyph unicode="&#xc0;" horiz-adv-x="604" d="M104 31v1229q0 80 58.5 139t138.5 59q82 0 139.5 -59.5t57.5 -138.5v-1229h-90v661h-213v-661h-91zM123 1737v78l356 -138v-78zM195 784h213v570h-213v-570z" />
<glyph unicode="&#xc1;" horiz-adv-x="604" d="M104 31v1229q0 80 58.5 139t138.5 59q82 0 139.5 -59.5t57.5 -138.5v-1229h-90v661h-213v-661h-91zM123 1599v78l356 138v-78zM195 784h213v570h-213v-570z" />
<glyph unicode="&#xc2;" horiz-adv-x="604" d="M100 1661l201 160l203 -160l-68 -43l-135 108l-135 -108zM104 31v1229q0 80 58.5 139t138.5 59q82 0 139.5 -59.5t57.5 -138.5v-1229h-90v661h-213v-661h-91zM195 784h213v570h-213v-570z" />
<glyph unicode="&#xc3;" horiz-adv-x="604" d="M98 1647q37 104 127 104q27 0 75 -18.5t73 -18.5q39 0 57 37h76q-37 -104 -129 -104q-25 0 -74 19.5t-74 19.5q-39 0 -55 -39h-76zM104 31v1229q0 80 58.5 139t138.5 59q82 0 139.5 -59.5t57.5 -138.5v-1229h-90v661h-213v-661h-91zM195 784h213v570h-213v-570z" />
<glyph unicode="&#xc4;" horiz-adv-x="604" d="M104 31v1229q0 80 58.5 139t138.5 59q82 0 139.5 -59.5t57.5 -138.5v-1229h-90v661h-213v-661h-91zM143 1647v92h90v-92h-90zM195 784h213v570h-213v-570zM369 1647v92h90v-92h-90z" />
<glyph unicode="&#xc5;" horiz-adv-x="604" d="M104 31v1229q0 80 58.5 139t138.5 59q82 0 139.5 -59.5t57.5 -138.5v-1229h-90v661h-213v-661h-91zM195 784h213v570h-213v-570zM211 1665q0 37 26.5 63.5t63.5 26.5t63.5 -26.5t26.5 -63.5t-26.5 -64.5t-63.5 -27.5t-63.5 27.5t-26.5 64.5zM213 1665q0 -35 26.5 -62.5 t61.5 -27.5q37 0 62.5 26.5t25.5 63.5q0 35 -25.5 61.5t-62.5 26.5q-33 0 -60.5 -26.5t-27.5 -61.5z" />
<glyph unicode="&#xc6;" horiz-adv-x="872" d="M88 31v1229q0 80 58.5 139t138.5 59q74 0 137 -84q45 72 90 72h272v-92h-303v-570h228v-92h-228v-569h303v-92h-272q-49 0 -85 35.5t-36 87.5v538h-213v-661h-90zM178 784h213v570h-213v-570z" />
<glyph unicode="&#xc7;" horiz-adv-x="561" d="M84 217v1043q0 80 58.5 139t138.5 59q133 0 174 -112q23 -63 22 -224h-90v232h-213v-1231h213v231h90v-137q0 -74 -50 -131t-124 -66q72 -31 72 -108q0 -92 -90 -119v60q37 18 37 59t-37 59v47h-4q-80 0 -138.5 58.5t-58.5 140.5z" />
<glyph unicode="&#xc8;" horiz-adv-x="555" d="M80 154v1169q0 51 36 87t85 36h272v-92h-303v-570h227v-92h-227v-569h303v-92h-272q-49 0 -85 35.5t-36 87.5zM80 1737v78l356 -138v-78z" />
<glyph unicode="&#xc9;" horiz-adv-x="555" d="M80 154v1169q0 51 36 87t85 36h272v-92h-303v-570h227v-92h-227v-569h303v-92h-272q-49 0 -85 35.5t-36 87.5zM80 1599v78l356 138v-78z" />
<glyph unicode="&#xca;" horiz-adv-x="555" d="M70 1661l200 160l203 -160l-67 -43l-136 108l-135 -108zM92 154v1169q0 51 36 87t85 36h272v-92h-303v-570h228v-92h-228v-569h303v-92h-272q-49 0 -85 35.5t-36 87.5z" />
<glyph unicode="&#xcb;" horiz-adv-x="555" d="M80 154v1169q0 51 36 87t85 36h272v-92h-303v-570h227v-92h-227v-569h303v-92h-272q-49 0 -85 35.5t-36 87.5zM100 1647v92h90v-92h-90zM326 1647v92h90v-92h-90z" />
<glyph unicode="&#xcc;" horiz-adv-x="303" d="M-27 1737v78l357 -138v-78zM106 31v1415h91v-1415h-91z" />
<glyph unicode="&#xcd;" horiz-adv-x="303" d="M-27 1599v78l357 138v-78zM106 31v1415h91v-1415h-91z" />
<glyph unicode="&#xce;" horiz-adv-x="296" d="M-53 1661l200 160l203 -160l-67 -43l-136 108l-135 -108zM102 31v1415h91v-1415h-91z" />
<glyph unicode="&#xcf;" horiz-adv-x="296" d="M-10 1647v92h90v-92h-90zM102 31v1415h91v-1415h-91zM215 1647v92h90v-92h-90z" />
<glyph unicode="&#xd0;" horiz-adv-x="606" d="M76 838h61l-2 608h275q49 0 83.5 -37t34.5 -86l2 -1169q0 -51 -35.5 -87t-84.5 -36h-275l2 729h-59zM225 123h213l2 1231h-215l2 -486l31 31q-2 -61 59 -61l2 -78h-92z" />
<glyph unicode="&#xd1;" horiz-adv-x="600" d="M94 1647q39 104 129 104q27 0 75 -18.5t73 -18.5q39 0 57 37h76q-37 -104 -129 -104q-25 0 -74 19.5t-74 19.5q-39 0 -55 -39h-78zM102 31v1415h88q66 -313 175 -944h63q-23 340 -22 547v397h90v-1415h-86q-66 313 -177 946h-63q23 -346 23 -549v-397h-91z" />
<glyph unicode="&#xd2;" horiz-adv-x="606" d="M106 217v1043q0 80 58.5 139t138.5 59t138.5 -59.5t58.5 -138.5v-1043q0 -80 -58.5 -139.5t-138.5 -59.5t-138.5 59.5t-58.5 139.5zM125 1737v78l356 -138v-78zM197 123h213v1231h-213v-1231z" />
<glyph unicode="&#xd3;" d="M104 217v1043q0 80 58.5 139t138.5 59q82 0 139.5 -59.5t57.5 -138.5v-1043q0 -80 -57.5 -139.5t-139.5 -59.5q-80 0 -138.5 59.5t-58.5 139.5zM123 1599v78l356 138v-78zM195 123h213v1231h-213v-1231z" />
<glyph unicode="&#xd4;" d="M100 1661l201 160l203 -160l-68 -43l-135 108l-135 -108zM104 217v1043q0 80 58.5 139t138.5 59q82 0 139.5 -59.5t57.5 -138.5v-1043q0 -80 -57.5 -139.5t-139.5 -59.5q-80 0 -138.5 59.5t-58.5 139.5zM195 123h213v1231h-213v-1231z" />
<glyph unicode="&#xd5;" d="M96 1647q39 104 129 104q27 0 75 -18.5t73 -18.5q39 0 57 37h76q-37 -104 -129 -104q-25 0 -74 19.5t-74 19.5q-39 0 -57 -39h-76zM104 217v1043q0 80 58.5 139t138.5 59t138.5 -59.5t58.5 -138.5v-1043q0 -80 -58.5 -139.5t-138.5 -59.5t-138.5 59.5t-58.5 139.5z M195 123h213v1231h-213v-1231z" />
<glyph unicode="&#xd6;" horiz-adv-x="606" d="M106 217v1043q0 80 58.5 139t138.5 59t138.5 -59.5t58.5 -138.5v-1043q0 -80 -58.5 -139.5t-138.5 -59.5t-138.5 59.5t-58.5 139.5zM145 1647v92h91v-92h-91zM197 123h213v1231h-213v-1231zM371 1647v92h90v-92h-90z" />
<glyph unicode="&#xd8;" horiz-adv-x="606" d="M31 430v90l75 74v666q0 80 58.5 139t138.5 59q203 0 203 -301q0 -37 -3 -99.5t-3 -84.5l75 74v-89l-75 -75v-666q0 -80 -58.5 -139.5t-138.5 -59.5q-203 0 -203 301q0 37 3 99.5t3 85.5zM197 123h213v676l-213 -209v-467zM197 682l213 205v467h-213v-672z" />
<glyph unicode="&#xd9;" horiz-adv-x="598" d="M102 217v1229h91v-1323h213v1323h90v-1229q0 -80 -57.5 -139.5t-139.5 -59.5q-80 0 -138.5 59.5t-58.5 139.5zM121 1737v78l356 -138v-78z" />
<glyph unicode="&#xda;" horiz-adv-x="598" d="M102 217v1229h91v-1323h213v1323h90v-1229q0 -80 -57.5 -139.5t-139.5 -59.5q-80 0 -138.5 59.5t-58.5 139.5zM121 1599v78l356 138v-78z" />
<glyph unicode="&#xdb;" horiz-adv-x="598" d="M98 1661l201 160l203 -160l-68 -43l-135 108l-135 -108zM102 217v1229h91v-1323h213v1323h90v-1229q0 -80 -57.5 -139.5t-139.5 -59.5q-80 0 -138.5 59.5t-58.5 139.5z" />
<glyph unicode="&#xdc;" horiz-adv-x="606" d="M106 217v1229h91v-1323h213v1323h90v-1229q0 -80 -58.5 -139.5t-138.5 -59.5t-138.5 59.5t-58.5 139.5zM145 1647v92h91v-92h-91zM371 1647v92h90v-92h-90z" />
<glyph unicode="&#xdd;" horiz-adv-x="606" d="M106 877v569h91v-664h213v664h90v-569q0 -137 -152 -197v-649h-90v649q-152 59 -152 197zM125 1599v78l356 138v-78z" />
<glyph unicode="&#xde;" horiz-adv-x="569" d="M88 31v1415h90v-289q14 0 54 2t63 2q186 0 186 -127v-508q0 -127 -184 -127q-23 0 -63.5 2t-55.5 2v-372h-90zM178 496h213v569h-213v-569z" />
<glyph unicode="&#xdf;" horiz-adv-x="606" d="M106 -264v1524q0 80 58.5 139t138.5 59t138.5 -59.5t58.5 -138.5v-396q0 -76 -105 -127q104 -51 105 -127v-444q0 -80 -47 -135h-82q39 68 39 135v539h-117v67h117v582h-213v-1504q0 -84 -91 -114z" />
<glyph unicode="&#xe0;" horiz-adv-x="595" d="M100 154v563q0 127 185 127q25 0 64.5 -2t53.5 -2v221h-270v92h240q51 0 86 -37t35 -86v-999h-273q-49 0 -85 35.5t-36 87.5zM119 1444v78l356 -138v-77zM190 123h213v625h-213v-625z" />
<glyph unicode="&#xe1;" horiz-adv-x="595" d="M100 154v563q0 127 185 127q25 0 64.5 -2t53.5 -2v221h-270v92h240q51 0 86 -37t35 -86v-999h-273q-49 0 -85 35.5t-36 87.5zM119 1307v77l356 138v-78zM190 123h213v625h-213v-625z" />
<glyph unicode="&#xe2;" horiz-adv-x="595" d="M96 1368l201 160l203 -160l-68 -43l-135 109l-135 -109zM100 154v563q0 127 185 127q25 0 64.5 -2t53.5 -2v221h-270v92h240q51 0 86 -37t35 -86v-999h-273q-49 0 -85 35.5t-36 87.5zM190 123h213v625h-213v-625z" />
<glyph unicode="&#xe3;" horiz-adv-x="595" d="M94 1354q37 104 127 104q27 0 75 -18.5t73 -18.5q39 0 57 37h76q-37 -104 -129 -104q-25 0 -74 19.5t-74 19.5q-39 0 -55 -39h-76zM100 154v563q0 127 185 127q23 0 63.5 -2t54.5 -2v221h-270v92h240q51 0 86 -37t35 -86v-999h-273q-49 0 -85 35.5t-36 87.5zM190 123h213 v625h-213v-625z" />
<glyph unicode="&#xe4;" horiz-adv-x="595" d="M100 154v563q0 127 185 127q25 0 64.5 -2t53.5 -2v221h-270v92h240q51 0 86 -37t35 -86v-999h-273q-49 0 -85 35.5t-36 87.5zM139 1354v92h90v-92h-90zM190 123h213v625h-213v-625zM365 1354v92h90v-92h-90z" />
<glyph unicode="&#xe5;" horiz-adv-x="595" d="M100 154v563q0 127 185 127q25 0 64.5 -2t53.5 -2v221h-270v92h240q51 0 86 -37t35 -86v-999h-273q-49 0 -85 35.5t-36 87.5zM190 123h213v625h-213v-625zM207 1393q0 37 26.5 63.5t63.5 26.5q39 0 64.5 -26.5t25.5 -63.5t-26.5 -65t-63.5 -28t-63.5 28t-26.5 65z M209 1393q0 -35 26.5 -62.5t61.5 -27.5q37 0 62.5 26.5t25.5 63.5q0 35 -25.5 61.5t-62.5 26.5q-33 0 -60.5 -27t-27.5 -61z" />
<glyph unicode="&#xe6;" horiz-adv-x="909" d="M106 154v563q0 127 185 127q23 0 63.5 -2t55.5 -2v221h-271v92h240q49 0 88 -63q66 76 139 75q80 0 138.5 -59t58.5 -139v-422h-303v-422h213v151h90v-57q0 -80 -58.5 -139.5t-138.5 -59.5q-47 0 -129 82v-69h-250q-49 0 -85 35.5t-36 87.5zM197 123h213v625h-213v-625z M500 637h213v424h-213v-424z" />
<glyph unicode="&#xe7;" horiz-adv-x="583" d="M246 -53q90 -27 90 -111q0 -92 -90 -119v60q37 18 37 59t-37 60v51z" />
<glyph unicode="&#xe8;" horiz-adv-x="583" d="M94 217v750q0 80 58.5 139t138.5 59q82 0 139 -59t57 -139v-422h-303v-422h213v151h90v-57q0 -80 -57 -139.5t-139 -59.5q-80 0 -138.5 59.5t-58.5 139.5zM113 1444v78l356 -138v-77zM184 637h213v424h-213v-424z" />
<glyph unicode="&#xe9;" horiz-adv-x="583" d="M94 217v750q0 80 58.5 139t138.5 59q82 0 139 -59t57 -139v-422h-303v-422h213v151h90v-57q0 -80 -57 -139.5t-139 -59.5q-80 0 -138.5 59.5t-58.5 139.5zM113 1307v77l356 138v-78zM184 637h213v424h-213v-424z" />
<glyph unicode="&#xea;" horiz-adv-x="583" d="M90 1368l201 160l203 -160l-68 -43l-135 109l-133 -109zM94 217v750q0 80 58.5 139t138.5 59q82 0 139 -59t57 -139v-422h-303v-422h213v151h90v-57q0 -80 -57 -139.5t-139 -59.5q-80 0 -138.5 59.5t-58.5 139.5zM184 637h213v424h-213v-424z" />
<glyph unicode="&#xeb;" horiz-adv-x="583" d="M94 217v750q0 80 58.5 139t138.5 59q82 0 139 -59t57 -139v-422h-303v-422h213v151h90v-57q0 -80 -57 -139.5t-139 -59.5q-80 0 -138.5 59.5t-58.5 139.5zM133 1354v92h90v-92h-90zM184 637h213v424h-213v-424zM358 1354v92h91v-92h-91z" />
<glyph unicode="&#xec;" horiz-adv-x="292" d="M-33 1444v78l357 -138v-77zM100 141v1012h90v-1128q-90 27 -90 116z" />
<glyph unicode="&#xed;" horiz-adv-x="292" d="M-33 1307v77l357 138v-78zM100 141v1012h90v-1128q-90 27 -90 116z" />
<glyph unicode="&#xee;" horiz-adv-x="292" d="M-55 1368l200 160l203 -160l-67 -43l-136 109l-135 -109zM100 141v1012h90v-1128q-90 27 -90 116z" />
<glyph unicode="&#xef;" horiz-adv-x="292" d="M-12 1354v92h90v-92h-90zM100 141v1012h90v-1128q-90 27 -90 116zM213 1354v92h90v-92h-90z" />
<glyph unicode="&#xf0;" horiz-adv-x="606" d="M106 217v750q0 80 58.5 139t138.5 59q35 0 70 -43l41 39q-23 90 -90 170l-105 -45l-29 37l103 45q-53 39 -90 59l57 23q41 -16 92 -57l92 39l29 -37l-84 -35q111 -141 111 -277v-866q0 -80 -58.5 -139.5t-138.5 -59.5t-138.5 59.5t-58.5 139.5zM197 123h213v938h-213 v-938z" />
<glyph unicode="&#xf1;" horiz-adv-x="595" d="M94 1354q37 104 127 104q27 0 75 -18.5t73 -18.5q39 0 57 37h76q-37 -104 -129 -104q-25 0 -74 19.5t-74 19.5q-39 0 -55 -39h-76zM100 31v1122h273q51 0 86 -37t35 -86v-999h-91v1030h-213v-1030h-90z" />
<glyph unicode="&#xf2;" horiz-adv-x="583" d="M94 217v750q0 80 58.5 139t138.5 59q82 0 139 -59t57 -139v-750q0 -80 -57 -139.5t-139 -59.5q-80 0 -138.5 59.5t-58.5 139.5zM113 1444v78l356 -138v-77zM184 123h213v938h-213v-938z" />
<glyph unicode="&#xf3;" horiz-adv-x="583" d="M94 217v750q0 80 58.5 139t138.5 59q82 0 139 -59t57 -139v-750q0 -80 -57 -139.5t-139 -59.5q-80 0 -138.5 59.5t-58.5 139.5zM113 1307v77l356 138v-78zM184 123h213v938h-213v-938z" />
<glyph unicode="&#xf4;" horiz-adv-x="583" d="M90 1368l201 160l203 -160l-68 -43l-135 109l-133 -109zM94 217v750q0 80 58.5 139t138.5 59q82 0 139 -59t57 -139v-750q0 -80 -57 -139.5t-139 -59.5q-80 0 -138.5 59.5t-58.5 139.5zM184 123h213v938h-213v-938z" />
<glyph unicode="&#xf5;" horiz-adv-x="583" d="M88 1354q37 104 127 104q27 0 75 -18.5t72 -18.5q39 0 58 37h76q-37 -104 -129 -104q-25 0 -74 19.5t-74 19.5q-39 0 -55 -39h-76zM94 217v750q0 80 58.5 139t138.5 59q82 0 139 -59t57 -139v-750q0 -80 -57 -139.5t-139 -59.5q-80 0 -138.5 59.5t-58.5 139.5zM184 123 h213v938h-213v-938z" />
<glyph unicode="&#xf6;" horiz-adv-x="583" d="M94 217v750q0 80 58.5 139t138.5 59q82 0 139 -59t57 -139v-750q0 -80 -57 -139.5t-139 -59.5q-80 0 -138.5 59.5t-58.5 139.5zM133 1354v92h90v-92h-90zM184 123h213v938h-213v-938zM358 1354v92h91v-92h-91z" />
<glyph unicode="&#xf7;" horiz-adv-x="1124" d="M119 444v78h887v-78h-887zM477 207q0 37 24.5 61.5t61.5 24.5q84 0 84 -86q0 -35 -24.5 -60.5t-59.5 -25.5q-37 0 -61.5 24.5t-24.5 61.5zM477 758q0 86 101 86q25 0 47 -29.5t22 -56.5q0 -35 -24.5 -60.5t-59.5 -25.5q-37 0 -61.5 24.5t-24.5 61.5z" />
<glyph unicode="&#xf8;" horiz-adv-x="606" d="M31 276v86l75 76v529q0 80 58.5 139t138.5 59q131 0 174 -112q23 -61 23 -219l75 77v-90l-75 -73v-531q0 -80 -58.5 -139.5t-138.5 -59.5q-133 0 -174 115q-23 61 -23 221q-27 -25 -75 -78zM197 123h213v534l-213 -213v-321zM197 528l213 217v316h-213v-533z" />
<glyph unicode="&#xf9;" horiz-adv-x="593" d="M100 31v1122h90v-1030h213v1030h91v-999q0 -51 -35 -87t-86 -36h-273zM119 1444v78l356 -138v-77z" />
<glyph unicode="&#xfa;" horiz-adv-x="593" d="M100 31v1122h90v-1030h213v1030h91v-999q0 -51 -35 -87t-86 -36h-273zM119 1307v77l356 138v-78z" />
<glyph unicode="&#xfb;" horiz-adv-x="593" d="M96 1368l201 160l203 -160l-68 -43l-135 109l-135 -109zM100 31v1122h90v-1030h213v1030h91v-999q0 -51 -35 -87t-86 -36h-273z" />
<glyph unicode="&#xfc;" horiz-adv-x="593" d="M100 31v1122h90v-1030h213v1030h91v-999q0 -51 -35 -87t-86 -36h-273zM139 1354v92h90v-92h-90zM365 1354v92h90v-92h-90z" />
<glyph unicode="&#xfd;" horiz-adv-x="606" d="M106 154v999h91v-1030h213v1030h90v-1411h-90v289q-14 0 -55.5 -2t-63.5 -2q-184 0 -185 127zM125 1307v77l356 138v-78z" />
<glyph unicode="&#xfe;" horiz-adv-x="606" d="M106 -258v1704h91v-293q14 0 54 2t62 2q186 0 187 -127v-876q0 -127 -185 -127q-23 0 -63.5 2t-54.5 2v-289h-91zM197 123h213v938h-213v-938z" />
<glyph unicode="&#xff;" horiz-adv-x="595" d="M100 154v999h90v-1030h213v1030h91v-1411h-91v289q-14 0 -54 -2t-64 -2q-184 0 -185 127zM139 1354v92h90v-92h-90zM365 1354v92h90v-92h-90z" />
<glyph unicode="&#x152;" horiz-adv-x="872" d="M88 217v1043q0 80 58.5 139t138.5 59q74 0 137 -84q45 72 90 72h272v-92h-303v-570h228v-92h-228v-569h303v-92h-272q-45 0 -90 71q-63 -84 -137 -84q-80 0 -138.5 59.5t-58.5 139.5zM178 123h213v1231h-213v-1231z" />
<glyph unicode="&#x153;" horiz-adv-x="909" d="M106 217v750q0 80 58.5 139t138.5 59q90 0 152 -98q63 98 151 98q80 0 138.5 -59t58.5 -139v-422h-303v-422h213v151h90v-57q0 -80 -58.5 -139.5t-138.5 -59.5q-86 0 -153 95q-57 -94 -150 -95q-80 0 -138.5 59.5t-58.5 139.5zM197 123h213v938h-213v-938zM500 637h213 v424h-213v-424z" />
<glyph unicode="&#x178;" horiz-adv-x="585" d="M96 877v569h90v-664h213v664h90v-569q0 -137 -151 -197v-649h-90v649q-152 59 -152 197zM135 1647v92h90v-92h-90zM360 1647v92h91v-92h-91z" />
<glyph unicode="&#x2c6;" horiz-adv-x="303" d="M-49 1368l201 160l200 -160l-65 -43l-135 109l-136 -109z" />
<glyph unicode="&#x2dc;" horiz-adv-x="303" d="M-53 1354q39 104 129 104q27 0 75 -18.5t72 -18.5q39 0 56 37h77q-37 -104 -129 -104q-27 0 -75 19.5t-72 19.5q-39 0 -57 -39h-76z" />
<glyph unicode="&#x2000;" horiz-adv-x="910" />
<glyph unicode="&#x2001;" horiz-adv-x="1821" />
<glyph unicode="&#x2002;" horiz-adv-x="910" />
<glyph unicode="&#x2003;" horiz-adv-x="1821" />
<glyph unicode="&#x2004;" horiz-adv-x="607" />
<glyph unicode="&#x2005;" horiz-adv-x="455" />
<glyph unicode="&#x2006;" horiz-adv-x="303" />
<glyph unicode="&#x2007;" horiz-adv-x="303" />
<glyph unicode="&#x2008;" horiz-adv-x="227" />
<glyph unicode="&#x2009;" horiz-adv-x="364" />
<glyph unicode="&#x200a;" horiz-adv-x="101" />
<glyph unicode="&#x2010;" horiz-adv-x="573" d="M106 692v92h361v-92h-361z" />
<glyph unicode="&#x2011;" horiz-adv-x="573" d="M106 692v92h361v-92h-361z" />
<glyph unicode="&#x2012;" horiz-adv-x="573" d="M106 692v92h361v-92h-361z" />
<glyph unicode="&#x2013;" horiz-adv-x="1024" d="M31 692v92h962v-92h-962z" />
<glyph unicode="&#x2014;" horiz-adv-x="2048" d="M31 692v92h1986v-92h-1986z" />
<glyph unicode="&#x2018;" horiz-adv-x="299" d="M104 1243v203h91v-111z" />
<glyph unicode="&#x2019;" horiz-adv-x="303" d="M106 1243v111l91 92v-203h-91z" />
<glyph unicode="&#x201a;" horiz-adv-x="303" d="M106 -82v205h91v-111z" />
<glyph unicode="&#x201c;" horiz-adv-x="552" d="M119 1243v203h90v-111zM344 1243v203h90v-111z" />
<glyph unicode="&#x201d;" horiz-adv-x="557" d="M121 1243v111l90 92v-203h-90zM346 1243v111l90 92v-203h-90z" />
<glyph unicode="&#x201e;" horiz-adv-x="606" d="M145 -82v205h91v-111zM371 -82v205h90v-111z" />
<glyph unicode="&#x2022;" horiz-adv-x="1024" d="M176 739q0 139 98.5 238.5t237.5 99.5t237.5 -99.5t98.5 -238.5t-98.5 -239.5t-237.5 -100.5t-237.5 100.5t-98.5 239.5z" />
<glyph unicode="&#x2026;" horiz-adv-x="2048" d="M297 31v92h90v-92h-90zM979 31v92h90v-92h-90zM1661 31v92h90v-92h-90z" />
<glyph unicode="&#x202f;" horiz-adv-x="364" />
<glyph unicode="&#x2039;" horiz-adv-x="530" d="M88 739l352 359l2 -135l-221 -224l219 -223l2 -135z" />
<glyph unicode="&#x203a;" horiz-adv-x="530" d="M88 516l221 223l-219 224l-2 133l354 -357l-352 -360z" />
<glyph unicode="&#x205f;" horiz-adv-x="455" />
<glyph unicode="&#x2122;" horiz-adv-x="2027" d="M166 1386v60h610v-60h-260v-763h-90v763h-260zM981 623v823h180l262 -719l260 719h179v-823h-90v725h-56l-264 -725h-61l-265 725h-55v-725h-90z" />
<glyph unicode="&#x25fc;" horiz-adv-x="1157" d="M0 0v1157h1157v-1157h-1157z" />
</font>
</defs>
</svg>
